<svg width="192" height="44" viewBox="0 0 192 44" fill="none" xmlns="http://www.w3.org/2000/svg">
<path d="M30.55 5.84996V29.25C30.5501 30.445 30.3148 31.6284 29.8576 32.7326C29.4003 33.8367 28.73 34.8399 27.885 35.685C27.0399 36.53 26.0367 37.2003 24.9325 37.6576C23.8284 38.1148 22.645 38.3501 21.45 38.35L19.5 32.5L17.55 38.35C15.1915 38.3501 12.9252 37.4345 11.2287 35.7961C9.53231 34.1578 8.53836 31.9247 8.45645 29.5677C8.45158 29.462 8.44995 29.3564 8.44995 29.25V5.84996L13.65 3.89996L14.95 0.649963H24.05L25.35 3.89996L30.307 5.75896L30.55 5.84996Z" fill="#3086CD"/>
<path d="M30.55 5.85003V29.25C30.5501 30.4451 30.3149 31.6285 29.8576 32.7326C29.4003 33.8368 28.73 34.84 27.885 35.685C27.0399 36.5301 26.0367 37.2004 24.9326 37.6576C23.8284 38.1149 22.6451 38.3502 21.45 38.35L19.5 32.5L17.55 38.35C15.1916 38.3502 12.9252 37.4346 11.2288 35.7962C9.53234 34.1578 8.53839 31.9247 8.45648 29.5677C16.709 25.9131 24.9226 18.6372 30.307 5.75903L30.55 5.85003Z" fill="#2D7DBF"/>
<path d="M24.05 0.649963L19.5 7.14996L14.95 0.649963H24.05Z" fill="#3086CD"/>
<path d="M21.775 3.90002L19.5 7.15002L17.225 3.90002H21.775Z" fill="#2D7DBF"/>
<path d="M13.65 3.89996L14.95 0.649963L19.5 7.14996L16.25 9.74996L13.65 3.89996Z" fill="#348FD9"/>
<path d="M25.35 3.89996L24.05 0.649963L19.5 7.14996L22.75 9.74996L25.35 3.89996Z" fill="#348FD9"/>
<path d="M8.44996 5.84998L4.93753 7.60619C4.68596 7.73198 4.48197 7.93597 4.35618 8.18754L0.787195 15.3255C0.696931 15.506 0.649947 15.705 0.649963 15.9069V26.3431C0.649947 26.5449 0.696931 26.7439 0.787195 26.9244L6.49996 38.35L10.4 35.75L8.44996 27.3V5.84998Z" fill="#2D7DBF"/>
<path d="M30.55 5.84998L34.4037 7.50154C34.6151 7.59213 34.7987 7.73718 34.9357 7.92188C35.0728 8.10659 35.1583 8.32434 35.1837 8.55292L38.35 37.05L33.8 38.35L30.55 22.75V5.84998Z" fill="#2D7DBF"/>
<path d="M27.95 19.5L25.35 20.8L22.75 19.5V14.95H27.95V19.5Z" fill="#348FD9"/>
<path d="M38.996 36.9783L35.8296 8.4812C35.7912 8.13844 35.6627 7.81195 35.4572 7.53495C35.2517 7.25795 34.9765 7.0403 34.6596 6.90414L30.806 5.25257C30.7968 5.24859 30.7872 5.24599 30.7777 5.24249L30.7782 5.24136L25.8469 3.39219L24.6535 0.408606C24.61 0.299802 24.5379 0.204787 24.4448 0.133616C24.3517 0.0624449 24.2411 0.0177655 24.1247 0.00430621C24.0999 0.00168898 24.0749 0.000522469 24.05 0.000812519V0H14.95V0.000812519C14.9251 0.000522469 14.9001 0.00168898 14.8753 0.00430621C14.7589 0.0177655 14.6483 0.0624449 14.5552 0.133616C14.4621 0.204787 14.39 0.299802 14.3465 0.408606L13.0465 3.65861C13.0142 3.73921 12.9985 3.82546 13.0001 3.91226C13.0017 3.99905 13.0207 4.08465 13.056 4.16398L15.656 10.014C15.6963 10.1049 15.757 10.1853 15.8333 10.249C15.9096 10.3127 15.9995 10.3581 16.0961 10.3817C16.1927 10.4052 16.2934 10.4063 16.3905 10.3848C16.4876 10.3633 16.5784 10.3198 16.6561 10.2577L18.8498 8.50273V32.3944L17.0856 37.6871C15.8324 37.6167 14.6106 37.2687 13.5084 36.6682C12.4062 36.0677 11.4513 35.2297 10.7127 34.2149L9.1 27.2261V6.30045L12.1449 5.15864L11.6885 3.94136L8.22177 5.24136C8.20071 5.24989 8.1801 5.25949 8.16002 5.27012L8.15929 5.26866L4.64685 7.02479C4.27002 7.21424 3.96425 7.52006 3.77488 7.89693L0.205888 15.0347C0.0708462 15.3056 0.000376607 15.6041 0 15.9069V26.3431C0.000357513 26.6458 0.0708288 26.9443 0.205888 27.2152L5.91866 38.6407C5.95988 38.7231 6.01816 38.7959 6.08963 38.8541C6.16111 38.9122 6.24414 38.9546 6.33321 38.9782C6.42229 39.0019 6.51538 39.0063 6.6063 38.9912C6.69723 38.9762 6.78391 38.9419 6.86059 38.8908L10.7606 36.2908C10.7699 36.2846 10.7777 36.277 10.7866 36.2704C12.604 38.0195 15.0276 38.9976 17.55 39C17.6864 39 17.8194 38.9571 17.9301 38.8773C18.0408 38.7976 18.1235 38.685 18.1667 38.5556L19.5 34.5556L20.8333 38.5557C20.8765 38.6851 20.9593 38.7977 21.07 38.8774C21.1806 38.9571 21.3136 39 21.45 39C22.7304 39.0001 23.9983 38.748 25.1813 38.2581C26.3643 37.7682 27.4392 37.05 28.3446 36.1446C29.25 35.2392 29.9682 34.1643 30.4581 32.9813C30.948 31.7983 31.2001 30.5304 31.2 29.25V29.0571L33.1637 38.4826C33.1819 38.5701 33.2179 38.6528 33.2696 38.7257C33.3212 38.7987 33.3874 38.8601 33.4638 38.9063C33.5403 38.9525 33.6255 38.9825 33.7141 38.9943C33.8026 39.0061 33.8927 38.9995 33.9786 38.975L38.5286 37.675C38.6763 37.6328 38.8042 37.5397 38.8898 37.4121C38.9753 37.2846 39.013 37.1309 38.996 36.9783V36.9783ZM6.75188 37.4008L1.36858 26.6337C1.32358 26.5435 1.30011 26.444 1.3 26.3431V15.9069C1.30013 15.806 1.32363 15.7065 1.36866 15.6162L4.93764 8.47819C5.00081 8.3526 5.10275 8.2507 5.22836 8.18756L7.8 6.9017V22.9775L6.47124 18.6588L5.22876 19.0412L7.82202 27.4693L8.92263 32.2387L6.16566 33.8926L6.83443 35.0074L9.23 33.5701L9.66574 35.4584L6.75188 37.4008ZM24.6446 3.88667L22.4981 8.71609L20.3821 7.02325L23.893 2.00769L24.6446 3.88667ZM19.5 6.01656L18.4734 4.55H20.5266L19.5 6.01656ZM21.4366 3.25H17.5634L16.1984 1.3H22.8016L21.4366 3.25ZM16.5019 8.71609L14.3554 3.88667L15.107 2.00769L18.618 7.02325L16.5019 8.71609ZM29.9 29.25C29.9003 31.4108 29.0727 33.4896 27.5873 35.059C26.102 36.6283 24.0719 37.569 21.9143 37.6876L20.15 32.3944V8.50249L22.3438 10.2575C22.4214 10.3196 22.5122 10.3631 22.6093 10.3846C22.7064 10.406 22.8071 10.405 22.9037 10.3814C23.0003 10.3579 23.0902 10.3125 23.1665 10.2488C23.2428 10.185 23.3035 10.1046 23.3439 10.0137L25.6951 4.72339L29.9 6.30045V29.25ZM34.2938 37.5329L31.2 22.683V6.83573L34.1477 8.099C34.2533 8.14438 34.345 8.21692 34.4135 8.30926C34.4821 8.4016 34.5249 8.51043 34.5377 8.62469L37.3427 33.8691L34.9425 34.4692L35.2577 35.7303L37.4875 35.1729L37.6435 36.5757L34.2938 37.5329Z" fill="black"/>
<path d="M27.95 14.3H22.75C22.5776 14.3 22.4123 14.3685 22.2904 14.4904C22.1685 14.6123 22.1 14.7776 22.1 14.95V19.5C22.1 19.6207 22.1337 19.739 22.1971 19.8417C22.2606 19.9444 22.3514 20.0273 22.4593 20.0813L25.0593 21.3813C25.1496 21.4265 25.2491 21.45 25.35 21.45C25.451 21.45 25.5505 21.4265 25.6407 21.3813L28.2407 20.0813C28.3487 20.0273 28.4395 19.9444 28.503 19.8417C28.5664 19.739 28.6 19.6207 28.6 19.5V14.95C28.6 14.7776 28.5316 14.6123 28.4097 14.4904C28.2878 14.3685 28.1224 14.3 27.95 14.3V14.3ZM27.3 19.0983L25.35 20.0733L23.4 19.0983V15.6H27.3V19.0983Z" fill="black"/>
<path d="M16.25 11.7H17.55V13H16.25V11.7Z" fill="black"/>
<path d="M16.25 18.2H17.55V19.5H16.25V18.2Z" fill="black"/>
<path d="M16.25 24.7H17.55V26H16.25V24.7Z" fill="black"/>
<path d="M16.25 31.2H17.55V32.5H16.25V31.2Z" fill="black"/>
<path d="M47.746 16.14C46.4953 16.14 45.5433 15.804 44.89 15.132C44.246 14.46 43.9007 13.5313 43.854 12.346C43.8447 12.094 43.84 11.6833 43.84 11.114C43.84 10.5353 43.8447 10.1153 43.854 9.854C43.9007 8.678 44.2507 7.754 44.904 7.082C45.5573 6.40067 46.5047 6.06 47.746 6.06C48.5767 6.06 49.2813 6.20933 49.86 6.508C50.4387 6.79733 50.8773 7.18 51.176 7.656C51.4747 8.132 51.638 8.64067 51.666 9.182V9.21C51.666 9.28467 51.6333 9.35 51.568 9.406C51.512 9.45267 51.4467 9.476 51.372 9.476H50.602C50.4153 9.476 50.2987 9.36867 50.252 9.154C50.0933 8.454 49.8087 7.964 49.398 7.684C48.9873 7.39467 48.4367 7.25 47.746 7.25C46.1407 7.25 45.31 8.14133 45.254 9.924C45.2447 10.176 45.24 10.5633 45.24 11.086C45.24 11.6087 45.2447 12.0053 45.254 12.276C45.31 14.0587 46.1407 14.95 47.746 14.95C48.4367 14.95 48.9873 14.81 49.398 14.53C49.818 14.2407 50.1027 13.746 50.252 13.046C50.28 12.9247 50.322 12.8407 50.378 12.794C50.434 12.7473 50.5087 12.724 50.602 12.724H51.372C51.456 12.724 51.526 12.752 51.582 12.808C51.6473 12.8547 51.6753 12.92 51.666 13.004C51.638 13.5547 51.4747 14.068 51.176 14.544C50.8773 15.02 50.4387 15.4073 49.86 15.706C49.2813 15.9953 48.5767 16.14 47.746 16.14ZM55.3902 16.14C54.9329 16.14 54.5082 16.0467 54.1162 15.86C53.7242 15.6733 53.4116 15.4213 53.1782 15.104C52.9542 14.7773 52.8422 14.418 52.8422 14.026C52.8422 13.41 53.0942 12.906 53.5982 12.514C54.1116 12.1127 54.8022 11.8513 55.6702 11.73L57.7562 11.436V11.03C57.7562 10.078 57.2102 9.602 56.1182 9.602C55.7076 9.602 55.3716 9.69067 55.1102 9.868C54.8489 10.036 54.6529 10.2367 54.5222 10.47C54.4942 10.554 54.4569 10.6147 54.4102 10.652C54.3729 10.6893 54.3169 10.708 54.2422 10.708H53.6402C53.5562 10.708 53.4816 10.68 53.4162 10.624C53.3602 10.5587 53.3322 10.484 53.3322 10.4C53.3416 10.176 53.4442 9.924 53.6402 9.644C53.8456 9.35467 54.1582 9.10733 54.5782 8.902C54.9982 8.68733 55.5162 8.58 56.1322 8.58C57.1776 8.58 57.9289 8.82733 58.3862 9.322C58.8436 9.80733 59.0722 10.414 59.0722 11.142V15.678C59.0722 15.7713 59.0396 15.8507 58.9742 15.916C58.9182 15.972 58.8436 16 58.7502 16H58.1062C58.0129 16 57.9336 15.972 57.8682 15.916C57.8122 15.8507 57.7842 15.7713 57.7842 15.678V15.076C57.5789 15.3747 57.2802 15.6267 56.8882 15.832C56.4962 16.0373 55.9969 16.14 55.3902 16.14ZM55.6842 15.09C56.2909 15.09 56.7856 14.894 57.1682 14.502C57.5602 14.1007 57.7562 13.5267 57.7562 12.78V12.388L56.1322 12.626C55.4696 12.7193 54.9702 12.878 54.6342 13.102C54.2982 13.3167 54.1302 13.592 54.1302 13.928C54.1302 14.3013 54.2842 14.5907 54.5922 14.796C54.9002 14.992 55.2642 15.09 55.6842 15.09ZM63.6048 16.14C62.9515 16.14 62.4008 16.0373 61.9528 15.832C61.5142 15.6173 61.1828 15.3747 60.9588 15.104C60.7442 14.8333 60.6368 14.6093 60.6368 14.432C60.6368 14.3387 60.6695 14.2687 60.7348 14.222C60.8095 14.166 60.8842 14.138 60.9588 14.138H61.5888C61.6822 14.138 61.7662 14.1847 61.8408 14.278C62.0648 14.5393 62.3075 14.7447 62.5688 14.894C62.8302 15.0433 63.1802 15.118 63.6188 15.118C64.1042 15.118 64.4962 15.0247 64.7948 14.838C65.1028 14.642 65.2568 14.376 65.2568 14.04C65.2568 13.816 65.1915 13.634 65.0608 13.494C64.9395 13.3447 64.7248 13.2187 64.4168 13.116C64.1182 13.004 63.6702 12.8827 63.0728 12.752C62.2608 12.5747 61.6822 12.318 61.3368 11.982C61.0008 11.646 60.8328 11.212 60.8328 10.68C60.8328 10.3253 60.9355 9.98933 61.1408 9.672C61.3555 9.34533 61.6635 9.084 62.0648 8.888C62.4755 8.68267 62.9655 8.58 63.5348 8.58C64.1322 8.58 64.6408 8.678 65.0608 8.874C65.4808 9.07 65.7935 9.30333 65.9988 9.574C66.2135 9.83533 66.3208 10.0547 66.3208 10.232C66.3208 10.316 66.2882 10.386 66.2228 10.442C66.1668 10.498 66.0968 10.526 66.0128 10.526H65.4248C65.3128 10.526 65.2195 10.4793 65.1448 10.386C64.9955 10.2087 64.8648 10.0733 64.7528 9.98C64.6502 9.87733 64.4962 9.78867 64.2908 9.714C64.0948 9.63933 63.8428 9.602 63.5348 9.602C63.0868 9.602 62.7415 9.7 62.4988 9.896C62.2562 10.0827 62.1348 10.33 62.1348 10.638C62.1348 10.834 62.1862 11.002 62.2888 11.142C62.3915 11.2727 62.5875 11.394 62.8768 11.506C63.1755 11.618 63.6048 11.7347 64.1648 11.856C65.0515 12.0427 65.6768 12.3133 66.0408 12.668C66.4142 13.0133 66.6008 13.4567 66.6008 13.998C66.6008 14.3993 66.4842 14.7633 66.2508 15.09C66.0175 15.4167 65.6722 15.6733 65.2148 15.86C64.7668 16.0467 64.2302 16.14 63.6048 16.14ZM70.9375 16.14C70.0509 16.14 69.3649 15.8553 68.8795 15.286C68.3942 14.7073 68.1515 13.942 68.1515 12.99V9.042C68.1515 8.94867 68.1795 8.874 68.2355 8.818C68.3009 8.75267 68.3802 8.72 68.4735 8.72H69.1735C69.2669 8.72 69.3415 8.75267 69.3975 8.818C69.4629 8.874 69.4955 8.94867 69.4955 9.042V12.92C69.4955 14.3107 70.1022 15.006 71.3155 15.006C71.9035 15.006 72.3702 14.824 72.7155 14.46C73.0609 14.0867 73.2335 13.5733 73.2335 12.92V9.042C73.2335 8.94867 73.2615 8.874 73.3175 8.818C73.3829 8.75267 73.4622 8.72 73.5555 8.72H74.2555C74.3489 8.72 74.4235 8.75267 74.4795 8.818C74.5355 8.874 74.5635 8.94867 74.5635 9.042V15.678C74.5635 15.7713 74.5355 15.8507 74.4795 15.916C74.4235 15.972 74.3489 16 74.2555 16H73.5975C73.5042 16 73.4249 15.972 73.3595 15.916C73.3035 15.8507 73.2755 15.7713 73.2755 15.678V15.062C73.0142 15.4167 72.6969 15.6873 72.3235 15.874C71.9502 16.0513 71.4882 16.14 70.9375 16.14ZM78.6734 16.14C78.2161 16.14 77.7914 16.0467 77.3994 15.86C77.0074 15.6733 76.6948 15.4213 76.4614 15.104C76.2374 14.7773 76.1254 14.418 76.1254 14.026C76.1254 13.41 76.3774 12.906 76.8814 12.514C77.3948 12.1127 78.0854 11.8513 78.9534 11.73L81.0394 11.436V11.03C81.0394 10.078 80.4934 9.602 79.4014 9.602C78.9908 9.602 78.6548 9.69067 78.3934 9.868C78.1321 10.036 77.9361 10.2367 77.8054 10.47C77.7774 10.554 77.7401 10.6147 77.6934 10.652C77.6561 10.6893 77.6001 10.708 77.5254 10.708H76.9234C76.8394 10.708 76.7648 10.68 76.6994 10.624C76.6434 10.5587 76.6154 10.484 76.6154 10.4C76.6248 10.176 76.7274 9.924 76.9234 9.644C77.1288 9.35467 77.4414 9.10733 77.8614 8.902C78.2814 8.68733 78.7994 8.58 79.4154 8.58C80.4608 8.58 81.2121 8.82733 81.6694 9.322C82.1268 9.80733 82.3554 10.414 82.3554 11.142V15.678C82.3554 15.7713 82.3228 15.8507 82.2574 15.916C82.2014 15.972 82.1268 16 82.0334 16H81.3894C81.2961 16 81.2168 15.972 81.1514 15.916C81.0954 15.8507 81.0674 15.7713 81.0674 15.678V15.076C80.8621 15.3747 80.5634 15.6267 80.1714 15.832C79.7794 16.0373 79.2801 16.14 78.6734 16.14ZM78.9674 15.09C79.5741 15.09 80.0688 14.894 80.4514 14.502C80.8434 14.1007 81.0394 13.5267 81.0394 12.78V12.388L79.4154 12.626C78.7528 12.7193 78.2534 12.878 77.9174 13.102C77.5814 13.3167 77.4134 13.592 77.4134 13.928C77.4134 14.3013 77.5674 14.5907 77.8754 14.796C78.1834 14.992 78.5474 15.09 78.9674 15.09ZM84.704 16C84.6107 16 84.5314 15.972 84.466 15.916C84.41 15.8507 84.382 15.7713 84.382 15.678V6.382C84.382 6.28867 84.41 6.214 84.466 6.158C84.5314 6.09267 84.6107 6.06 84.704 6.06H85.362C85.4554 6.06 85.53 6.09267 85.586 6.158C85.6514 6.214 85.684 6.28867 85.684 6.382V15.678C85.684 15.7713 85.6514 15.8507 85.586 15.916C85.53 15.972 85.4554 16 85.362 16H84.704Z" fill="black"/>
<path d="M45.28 38C45.12 38 44.976 37.944 44.848 37.832C44.736 37.704 44.68 37.56 44.68 37.4V21.8C44.68 21.624 44.736 21.48 44.848 21.368C44.976 21.256 45.12 21.2 45.28 21.2H47.872C48.256 21.2 48.536 21.376 48.712 21.728L52.936 29.288L57.16 21.728C57.336 21.376 57.616 21.2 58 21.2H60.568C60.744 21.2 60.888 21.256 61 21.368C61.128 21.48 61.192 21.624 61.192 21.8V37.4C61.192 37.576 61.128 37.72 61 37.832C60.888 37.944 60.744 38 60.568 38H57.712C57.536 38 57.384 37.944 57.256 37.832C57.144 37.72 57.088 37.576 57.088 37.4V28.4L54.4 33.416C54.192 33.784 53.912 33.968 53.56 33.968H52.312C52.104 33.968 51.936 33.92 51.808 33.824C51.68 33.728 51.568 33.592 51.472 33.416L48.76 28.4V37.4C48.76 37.56 48.704 37.704 48.592 37.832C48.48 37.944 48.336 38 48.16 38H45.28ZM68.035 38.24C67.187 38.24 66.411 38.08 65.707 37.76C65.019 37.424 64.475 36.976 64.075 36.416C63.691 35.84 63.499 35.208 63.499 34.52C63.499 33.416 63.947 32.528 64.843 31.856C65.755 31.184 67.003 30.72 68.587 30.464L71.587 30.008V29.672C71.587 29.064 71.459 28.616 71.203 28.328C70.947 28.04 70.515 27.896 69.907 27.896C69.539 27.896 69.235 27.96 68.995 28.088C68.755 28.216 68.507 28.392 68.251 28.616C68.027 28.808 67.859 28.936 67.747 29C67.699 29.128 67.611 29.192 67.483 29.192H64.867C64.707 29.192 64.571 29.144 64.459 29.048C64.363 28.936 64.323 28.808 64.339 28.664C64.355 28.232 64.563 27.752 64.963 27.224C65.379 26.696 66.003 26.24 66.835 25.856C67.683 25.472 68.723 25.28 69.955 25.28C71.923 25.28 73.379 25.72 74.323 26.6C75.267 27.464 75.739 28.632 75.739 30.104V37.4C75.739 37.56 75.683 37.704 75.571 37.832C75.459 37.944 75.315 38 75.139 38H72.355C72.195 38 72.051 37.944 71.923 37.832C71.811 37.704 71.755 37.56 71.755 37.4V36.56C71.403 37.056 70.907 37.464 70.267 37.784C69.643 38.088 68.899 38.24 68.035 38.24ZM69.163 35.504C69.899 35.504 70.491 35.264 70.939 34.784C71.403 34.304 71.635 33.6 71.635 32.672V32.336L69.595 32.696C68.155 32.952 67.435 33.456 67.435 34.208C67.435 34.608 67.603 34.928 67.939 35.168C68.275 35.392 68.683 35.504 69.163 35.504ZM79.0473 38C78.8713 38 78.7273 37.944 78.6152 37.832C78.5033 37.72 78.4473 37.576 78.4473 37.4V26.12C78.4473 25.944 78.5033 25.8 78.6152 25.688C78.7273 25.576 78.8713 25.52 79.0473 25.52H81.8073C81.9833 25.52 82.1273 25.584 82.2393 25.712C82.3673 25.824 82.4313 25.96 82.4313 26.12V27.08C83.3113 26.04 84.4953 25.52 85.9833 25.52H87.0393C87.2153 25.52 87.3593 25.576 87.4713 25.688C87.5833 25.8 87.6393 25.944 87.6393 26.12V28.592C87.6393 28.752 87.5833 28.896 87.4713 29.024C87.3593 29.136 87.2153 29.192 87.0393 29.192H84.7113C84.0553 29.192 83.5433 29.376 83.1753 29.744C82.8233 30.096 82.6473 30.6 82.6473 31.256V37.4C82.6473 37.576 82.5833 37.72 82.4553 37.832C82.3433 37.944 82.1993 38 82.0233 38H79.0473ZM89.9457 38C89.7857 38 89.6417 37.944 89.5137 37.832C89.4017 37.704 89.3457 37.56 89.3457 37.4V21.56C89.3457 21.384 89.4017 21.24 89.5137 21.128C89.6417 21.016 89.7857 20.96 89.9457 20.96H92.7297C92.9057 20.96 93.0497 21.016 93.1617 21.128C93.2737 21.24 93.3297 21.384 93.3297 21.56V29.6L96.6657 25.928C96.6977 25.896 96.7537 25.84 96.8337 25.76C96.9297 25.68 97.0257 25.624 97.1217 25.592C97.2177 25.544 97.3297 25.52 97.4577 25.52H100.674C100.818 25.52 100.938 25.576 101.034 25.688C101.146 25.784 101.202 25.904 101.202 26.048C101.202 26.224 101.138 26.36 101.01 26.456L96.6897 31.112L101.61 37.088C101.738 37.216 101.802 37.336 101.802 37.448C101.802 37.608 101.746 37.744 101.634 37.856C101.538 37.952 101.41 38 101.25 38H97.9617C97.7537 38 97.5937 37.968 97.4817 37.904C97.3857 37.84 97.2657 37.736 97.1217 37.592L93.3297 33.032V37.4C93.3297 37.56 93.2737 37.704 93.1617 37.832C93.0497 37.944 92.9057 38 92.7297 38H89.9457ZM108.582 38.24C106.662 38.24 105.15 37.72 104.046 36.68C102.942 35.64 102.366 34.128 102.318 32.144V31.304C102.382 29.416 102.966 27.944 104.07 26.888C105.19 25.816 106.686 25.28 108.558 25.28C109.918 25.28 111.062 25.56 111.99 26.12C112.934 26.664 113.638 27.416 114.102 28.376C114.582 29.336 114.822 30.44 114.822 31.688V32.264C114.822 32.424 114.766 32.568 114.654 32.696C114.542 32.808 114.398 32.864 114.222 32.864H106.542V33.032C106.574 33.784 106.758 34.392 107.094 34.856C107.43 35.32 107.918 35.552 108.558 35.552C108.958 35.552 109.286 35.472 109.542 35.312C109.798 35.136 110.03 34.928 110.238 34.688C110.382 34.512 110.494 34.408 110.574 34.376C110.67 34.328 110.814 34.304 111.006 34.304H113.982C114.126 34.304 114.246 34.352 114.342 34.448C114.454 34.528 114.51 34.64 114.51 34.784C114.51 35.2 114.27 35.68 113.79 36.224C113.326 36.768 112.646 37.24 111.75 37.64C110.854 38.04 109.798 38.24 108.582 38.24ZM110.598 30.488V30.44C110.598 29.656 110.414 29.04 110.046 28.592C109.694 28.128 109.198 27.896 108.558 27.896C107.934 27.896 107.438 28.128 107.07 28.592C106.718 29.04 106.542 29.656 106.542 30.44V30.488H110.598ZM123.409 38C120.097 38 118.441 36.424 118.441 33.272V28.664H116.569C116.393 28.664 116.241 28.608 116.113 28.496C116.001 28.384 115.945 28.24 115.945 28.064V26.12C115.945 25.944 116.001 25.8 116.113 25.688C116.241 25.576 116.393 25.52 116.569 25.52H118.441V21.56C118.441 21.384 118.497 21.24 118.609 21.128C118.737 21.016 118.881 20.96 119.041 20.96H121.825C122.001 20.96 122.145 21.016 122.257 21.128C122.369 21.24 122.425 21.384 122.425 21.56V25.52H125.425C125.601 25.52 125.745 25.576 125.857 25.688C125.985 25.8 126.049 25.944 126.049 26.12V28.064C126.049 28.24 125.985 28.384 125.857 28.496C125.745 28.608 125.601 28.664 125.425 28.664H122.425V32.936C122.425 34.12 122.881 34.712 123.793 34.712H125.641C125.817 34.712 125.961 34.768 126.073 34.88C126.185 34.992 126.241 35.136 126.241 35.312V37.4C126.241 37.56 126.185 37.704 126.073 37.832C125.961 37.944 125.817 38 125.641 38H123.409ZM128.829 42.56C128.669 42.56 128.525 42.504 128.396 42.392C128.285 42.28 128.229 42.136 128.229 41.96V26.12C128.229 25.944 128.285 25.8 128.396 25.688C128.525 25.576 128.669 25.52 128.829 25.52H131.541C131.717 25.52 131.861 25.576 131.973 25.688C132.085 25.8 132.141 25.944 132.141 26.12V26.984C133.005 25.848 134.245 25.28 135.861 25.28C137.429 25.28 138.653 25.768 139.533 26.744C140.413 27.72 140.893 29.096 140.973 30.872C140.989 31.08 140.997 31.376 140.997 31.76C140.997 32.144 140.989 32.44 140.973 32.648C140.909 34.376 140.429 35.744 139.533 36.752C138.637 37.744 137.413 38.24 135.861 38.24C134.293 38.24 133.125 37.704 132.357 36.632V41.96C132.357 42.136 132.301 42.28 132.189 42.392C132.077 42.504 131.933 42.56 131.757 42.56H128.829ZM134.565 35.024C135.317 35.024 135.853 34.8 136.173 34.352C136.509 33.904 136.701 33.288 136.749 32.504C136.781 32.184 136.797 31.936 136.797 31.76C136.797 31.584 136.781 31.336 136.749 31.016C136.701 30.232 136.509 29.616 136.173 29.168C135.853 28.72 135.317 28.496 134.565 28.496C133.829 28.496 133.285 28.728 132.933 29.192C132.597 29.64 132.405 30.224 132.357 30.944L132.333 31.832L132.357 32.744C132.389 33.4 132.589 33.944 132.957 34.376C133.325 34.808 133.861 35.024 134.565 35.024ZM143.969 38C143.809 38 143.665 37.944 143.537 37.832C143.425 37.704 143.369 37.56 143.369 37.4V21.56C143.369 21.384 143.425 21.24 143.537 21.128C143.665 21.016 143.809 20.96 143.969 20.96H146.801C146.977 20.96 147.121 21.016 147.233 21.128C147.345 21.24 147.401 21.384 147.401 21.56V37.4C147.401 37.576 147.345 37.72 147.233 37.832C147.121 37.944 146.977 38 146.801 38H143.969ZM153.98 38.24C153.132 38.24 152.356 38.08 151.652 37.76C150.964 37.424 150.42 36.976 150.02 36.416C149.636 35.84 149.444 35.208 149.444 34.52C149.444 33.416 149.892 32.528 150.788 31.856C151.7 31.184 152.948 30.72 154.532 30.464L157.532 30.008V29.672C157.532 29.064 157.404 28.616 157.148 28.328C156.892 28.04 156.46 27.896 155.852 27.896C155.484 27.896 155.18 27.96 154.94 28.088C154.7 28.216 154.452 28.392 154.196 28.616C153.972 28.808 153.804 28.936 153.692 29C153.644 29.128 153.556 29.192 153.428 29.192H150.812C150.652 29.192 150.516 29.144 150.404 29.048C150.308 28.936 150.268 28.808 150.284 28.664C150.3 28.232 150.508 27.752 150.908 27.224C151.324 26.696 151.948 26.24 152.78 25.856C153.628 25.472 154.668 25.28 155.9 25.28C157.868 25.28 159.324 25.72 160.268 26.6C161.212 27.464 161.684 28.632 161.684 30.104V37.4C161.684 37.56 161.628 37.704 161.516 37.832C161.404 37.944 161.26 38 161.084 38H158.3C158.14 38 157.996 37.944 157.868 37.832C157.756 37.704 157.7 37.56 157.7 37.4V36.56C157.348 37.056 156.852 37.464 156.212 37.784C155.588 38.088 154.844 38.24 153.98 38.24ZM155.108 35.504C155.844 35.504 156.436 35.264 156.884 34.784C157.348 34.304 157.58 33.6 157.58 32.672V32.336L155.54 32.696C154.1 32.952 153.38 33.456 153.38 34.208C153.38 34.608 153.548 34.928 153.884 35.168C154.22 35.392 154.628 35.504 155.108 35.504ZM170.129 38.24C168.321 38.24 166.857 37.76 165.737 36.8C164.617 35.824 164.017 34.472 163.937 32.744L163.913 31.784L163.937 30.8C164.001 29.072 164.593 27.72 165.713 26.744C166.849 25.768 168.321 25.28 170.129 25.28C171.489 25.28 172.633 25.528 173.561 26.024C174.505 26.504 175.201 27.088 175.649 27.776C176.113 28.448 176.361 29.064 176.393 29.624C176.409 29.784 176.353 29.928 176.225 30.056C176.113 30.168 175.969 30.224 175.793 30.224H172.745C172.569 30.224 172.433 30.184 172.337 30.104C172.241 30.024 172.153 29.904 172.073 29.744C171.881 29.248 171.633 28.896 171.329 28.688C171.041 28.48 170.665 28.376 170.201 28.376C168.889 28.376 168.209 29.224 168.161 30.92L168.137 31.832L168.161 32.624C168.193 33.488 168.377 34.128 168.713 34.544C169.065 34.944 169.561 35.144 170.201 35.144C170.697 35.144 171.089 35.04 171.377 34.832C171.665 34.624 171.897 34.272 172.073 33.776C172.153 33.616 172.241 33.496 172.337 33.416C172.433 33.336 172.569 33.296 172.745 33.296H175.793C175.953 33.296 176.089 33.352 176.201 33.464C176.329 33.56 176.393 33.688 176.393 33.848C176.393 34.36 176.169 34.96 175.721 35.648C175.289 36.336 174.601 36.944 173.657 37.472C172.713 37.984 171.537 38.24 170.129 38.24ZM184.309 38.24C182.389 38.24 180.877 37.72 179.773 36.68C178.669 35.64 178.093 34.128 178.045 32.144V31.304C178.109 29.416 178.693 27.944 179.797 26.888C180.917 25.816 182.413 25.28 184.285 25.28C185.645 25.28 186.789 25.56 187.717 26.12C188.661 26.664 189.365 27.416 189.829 28.376C190.309 29.336 190.549 30.44 190.549 31.688V32.264C190.549 32.424 190.493 32.568 190.381 32.696C190.269 32.808 190.125 32.864 189.949 32.864H182.269V33.032C182.301 33.784 182.485 34.392 182.821 34.856C183.157 35.32 183.645 35.552 184.285 35.552C184.685 35.552 185.013 35.472 185.269 35.312C185.525 35.136 185.757 34.928 185.965 34.688C186.109 34.512 186.221 34.408 186.301 34.376C186.397 34.328 186.541 34.304 186.733 34.304H189.709C189.853 34.304 189.973 34.352 190.069 34.448C190.181 34.528 190.237 34.64 190.237 34.784C190.237 35.2 189.997 35.68 189.517 36.224C189.053 36.768 188.373 37.24 187.477 37.64C186.581 38.04 185.525 38.24 184.309 38.24ZM186.325 30.488V30.44C186.325 29.656 186.141 29.04 185.773 28.592C185.421 28.128 184.925 27.896 184.285 27.896C183.661 27.896 183.165 28.128 182.797 28.592C182.445 29.04 182.269 29.656 182.269 30.44V30.488H186.325Z" fill="black"/>
</svg>
